<svg data-name="Слой 1" xmlns="http://www.w3.org/2000/svg" xmlns:xlink="http://www.w3.org/1999/xlink" viewBox="0 0 30.377 34.602"><defs><linearGradient id="a" x1=".373" y1="18.566" x2="26.242" y2="18.566" gradientTransform="matrix(1 0 0 -1 0 36)" gradientUnits="userSpaceOnUse"><stop offset="0" stop-color="#fe5c28"/><stop offset="1" stop-color="#ff8b36" stop-opacity=".9"/></linearGradient><linearGradient id="b" x1="21.75" y1="27.515" x2="29.709" y2="27.515" xlink:href="#a"/></defs><path d="M26.25 19.94v-3.103H24v3.58a1.142 1.142 0 0 0 .082.456 1.087 1.087 0 0 0 .255.379l3.038 3.222v1.909H2.625v-1.91l3.038-3.221a1.087 1.087 0 0 0 .255-.378A1.143 1.143 0 0 0 6 20.417V14.45A9.847 9.847 0 0 1 8.636 7.7 8.747 8.747 0 0 1 15 4.905a8.493 8.493 0 0 1 4.5 1.3V3.474a10.435 10.435 0 0 0-3.375-.954V.133h-2.25v2.386A11.216 11.216 0 0 0 6.681 6.45a12.53 12.53 0 0 0-2.931 8v5.49L.712 23.16a1.087 1.087 0 0 0-.255.378 1.144 1.144 0 0 0-.082.457v3.58a1.183 1.183 0 0 0 .065.469 1.131 1.131 0 0 0 .242.398 1.053 1.053 0 0 0 .376.257 1.002 1.002 0 0 0 .442.069h7.875a6.155 6.155 0 0 0 1.648 4.219 5.4 5.4 0 0 0 7.955 0 6.154 6.154 0 0 0 1.647-4.22H28.5a1.002 1.002 0 0 0 .442-.068 1.054 1.054 0 0 0 .376-.257 1.131 1.131 0 0 0 .242-.399 1.185 1.185 0 0 0 .065-.468v-3.58a1.144 1.144 0 0 0-.082-.457 1.088 1.088 0 0 0-.255-.378zM15 32.348a3.28 3.28 0 0 1-2.386-1.049 3.693 3.693 0 0 1-.989-2.531h6.75a3.693 3.693 0 0 1-.989 2.531A3.28 3.28 0 0 1 15 32.35z" transform="translate(-.373 -.133)" style="fill:url(#a)"/><path d="M26.25 13.258a4.642 4.642 0 0 0 4.5-4.773 4.642 4.642 0 0 0-4.5-4.773 4.642 4.642 0 0 0-4.5 4.773 4.642 4.642 0 0 0 4.5 4.773z" transform="translate(-.373 -.133)" style="fill:url(#b)"/></svg>