<svg id="bcac84f1-11e8-44ce-bda7-f64d89dd5033" data-name="Слой 1" xmlns="http://www.w3.org/2000/svg" viewBox="0 0 38 38"><defs><style>.a69f4356-f213-4eb7-8680-f9d8ba3cf607{fill:#15ce3d}</style></defs><path class="a69f4356-f213-4eb7-8680-f9d8ba3cf607" d="M19 1a19 19 0 1 0 19 19A19 19 0 0 0 19 1zm11.643 30.643a16.362 16.362 0 1 1 3.49-5.129l.04-.106a16.497 16.497 0 0 1-3.53 5.233z" transform="translate(0 -1)"/><path class="a69f4356-f213-4eb7-8680-f9d8ba3cf607" d="M10.767 15.567h3.166v3.166h-3.166zm13.3 0h3.166v3.166h-3.166zm1.447 8.486a6.632 6.632 0 0 1-6.153 4.18h-.722a6.622 6.622 0 0 1-6.138-4.136l-.015-.044-.101-.253h-2.73l.478 1.194a9.203 9.203 0 0 0 8.528 5.773h.68a9.182 9.182 0 0 0 8.504-5.712l.022-.061.478-1.194h-2.73z" transform="translate(0 -1)"/></svg>