<svg id="bc3aa6ed-0d11-4792-a2fa-4864d49e4401" data-name="Слой 1" xmlns="http://www.w3.org/2000/svg" viewBox="0 0 38 38"><defs><style>.a86bf40d-d6db-4f0e-b34b-ca541af0e2a8{fill:#dc1e1e}</style></defs><path class="a86bf40d-d6db-4f0e-b34b-ca541af0e2a8" d="M19 1a19 19 0 1 0 19 19A19 19 0 0 0 19 1zM1.744 22.335l5.426 1.35a8.47 8.47 0 0 0-.046.793 12.413 12.413 0 0 0 1.525 5.973L5.917 31.48a17.365 17.365 0 0 1-4.173-9.144zM19 37.417a17.334 17.334 0 0 1-11.363-4.235l2.265-.864a11.638 11.638 0 0 0 18.197 0l2.265.864A17.335 17.335 0 0 1 19 37.417zM8.708 24.477c0-3.667 2.366-4.404 6.183-4.404.7 0 1.41.025 2.104.048q2.004.07 4.01 0c.697-.023 1.405-.048 2.104-.048 3.818 0 6.184.737 6.184 4.405A10.482 10.482 0 0 1 19 35.116 10.481 10.481 0 0 1 8.708 24.478zm23.375 7-2.732-1.026a12.414 12.414 0 0 0 1.525-5.973c0-.28-.022-.537-.045-.793l5.425-1.35a17.346 17.346 0 0 1-4.173 9.143zm-1.812-9.937c-1.477-3.04-5.308-3.05-7.162-3.05-.716 0-1.443.025-2.157.05q-1.95.068-3.903 0-1.078-.043-2.158-.05c-1.855 0-5.685.01-7.162 3.05l-6.144-1.519L1.583 20A17.318 17.318 0 0 1 4.791 9.947c.232.318.617.599.78.456a9.012 9.012 0 0 1 7.404-1.984c.367.071.692-1.28.246-1.366a10.389 10.389 0 0 0-7.192 1.34 17.382 17.382 0 0 1 26.111.195 10.389 10.389 0 0 0-7.36-1.44c-.446.086-.123 1.438.244 1.366a9.009 9.009 0 0 1 7.405 1.984c.171.149.59-.166.815-.502A17.31 17.31 0 0 1 36.417 20v.02z" transform="translate(0 -1)"/><path class="a86bf40d-d6db-4f0e-b34b-ca541af0e2a8" d="M22.22 12.434c-.485.167-.85.187-.787.466 1.273 5.555 6.463 6.945 10.344 2.772.194-.211-.112-.41-.447-.8a8.142 8.142 0 0 1-9.11-2.438zm-6.438-.002a8.143 8.143 0 0 1-9.11 2.442c-.334.387-.641.587-.448.798 3.882 4.175 9.07 2.783 10.346-2.772.06-.279-.303-.3-.788-.468" transform="translate(0 -1)"/></svg>