<svg id="aaef0e53-4243-462a-9a71-c33803a1117b" data-name="a0a0b012-965c-411b-9671-d88f80405158" xmlns="http://www.w3.org/2000/svg" viewBox="0 0 39 39"><defs><style>.e57988d7-862e-4e9c-b6a9-adf4f9710870{fill:#f14c51}</style></defs><path d="M494.26 475.254a2.597 2.597 0 0 0-2.252 1.302h-3.727a10.453 10.453 0 0 0-2.139-5.162l2.636-2.637a2.596 2.596 0 1 0-.021-5.007 29.618 29.618 0 0 1-1.306 3.544q-.084.189-.17.377a29.84 29.84 0 0 1-1.657 3.108q-.167.272-.339.54a29.928 29.928 0 0 1-16.156 12.378q.21.313.441.61l-2.636 2.636a2.596 2.596 0 1 0 1.83 1.83l2.636-2.637a10.45 10.45 0 0 0 5.163 2.139v3.727a2.596 2.596 0 1 0 2.587 0v-3.727a10.45 10.45 0 0 0 5.163-2.139l2.636 2.636a2.596 2.596 0 1 0 1.83-1.83l-2.637-2.636a10.453 10.453 0 0 0 2.139-5.162h3.727a2.597 2.597 0 1 0 2.252-3.89zm-16.404 9.638zm5.83-5.222a1.924 1.924 0 1 1 1.925-1.925 1.924 1.924 0 0 1-1.924 1.925z" transform="translate(-458.356 -458.35)" style="fill:#df312d;stroke:#df312d"/><path d="M487.62 464.415a2.596 2.596 0 0 0-.671 2.513l-2.636 2.636a10.446 10.446 0 0 0-5.163-2.139v-3.727a2.596 2.596 0 1 0-2.587 0v3.727a10.446 10.446 0 0 0-5.163 2.14l-2.636-2.637a2.596 2.596 0 1 0-1.83 1.83l2.636 2.636a10.45 10.45 0 0 0-2.139 5.162h-3.727a2.596 2.596 0 1 0 0 2.588h3.727a10.437 10.437 0 0 0 1.698 4.554 29.928 29.928 0 0 0 16.156-12.378q.172-.269.339-.541a29.84 29.84 0 0 0 1.658-3.108q.086-.188.17-.377a29.618 29.618 0 0 0 1.305-3.544 2.578 2.578 0 0 0-1.138.665zm-15.714 15.275zm5.95-5.223a1.924 1.924 0 1 1 1.924-1.924 1.924 1.924 0 0 1-1.924 1.924z" transform="translate(-458.356 -458.35)" style="fill:#eb3435;stroke:#eb3435"/><path class="e57988d7-862e-4e9c-b6a9-adf4f9710870" d="M479.78 472.543zm5.83 5.203a1.924 1.924 0 1 1-1.923-1.924 1.924 1.924 0 0 1 1.924 1.924z" transform="translate(-458.356 -458.35)"/><circle class="e57988d7-862e-4e9c-b6a9-adf4f9710870" cx="19.5" cy="24.618" r="1.924"/><path class="e57988d7-862e-4e9c-b6a9-adf4f9710870" d="M473.83 477.766z" transform="translate(-458.356 -458.35)"/></svg>