<svg data-name="Слой 1" xmlns="http://www.w3.org/2000/svg" viewBox="0 0 320 40"><rect width="320" height="40" rx="5" style="fill:#fff"/><path d="M16.66 33a.671.671 0 0 1-.7-.7V14.1a.682.682 0 0 1 .196-.504.745.745 0 0 1 .504-.196h2.968a.953.953 0 0 1 .952.532l6.832 10.752V14.1a.682.682 0 0 1 .196-.504.745.745 0 0 1 .504-.196h3.36a.671.671 0 0 1 .7.7v18.172a.781.781 0 0 1-.196.532.682.682 0 0 1-.504.196h-2.996a1.001 1.001 0 0 1-.924-.532l-6.832-10.36V32.3a.745.745 0 0 1-.196.504.682.682 0 0 1-.504.196zm18.305 0a.574.574 0 0 1-.588-.588.848.848 0 0 1 .028-.252l6.58-17.976a1.017 1.017 0 0 1 .364-.56 1.13 1.13 0 0 1 .728-.224h4.144a1.13 1.13 0 0 1 .728.224 1.017 1.017 0 0 1 .364.56l6.552 17.976.056.252a.589.589 0 0 1-.196.42.57.57 0 0 1-.42.168h-3.444a.87.87 0 0 1-.896-.588l-1.092-2.856h-7.476l-1.064 2.856a.89.89 0 0 1-.924.588zm11.788-7.476-2.604-7.392-2.604 7.392zM56.828 33a.671.671 0 0 1-.7-.7V14.1a.682.682 0 0 1 .196-.504.745.745 0 0 1 .504-.196h3.024a1.026 1.026 0 0 1 .98.616l4.928 8.82 4.928-8.82a1.026 1.026 0 0 1 .98-.616h2.996a.682.682 0 0 1 .504.196.64.64 0 0 1 .224.504v18.2a.64.64 0 0 1-.224.504.682.682 0 0 1-.504.196h-3.332a.78.78 0 0 1-.532-.196.682.682 0 0 1-.196-.504V21.8l-3.136 5.852a1.098 1.098 0 0 1-.98.644h-1.456a.955.955 0 0 1-.588-.168 1.449 1.449 0 0 1-.392-.476L60.888 21.8v10.5a.746.746 0 0 1-.196.504.682.682 0 0 1-.504.196zm21.367 0a.574.574 0 0 1-.587-.588.848.848 0 0 1 .028-.252l6.58-17.976a1.017 1.017 0 0 1 .364-.56 1.13 1.13 0 0 1 .728-.224h4.144a1.13 1.13 0 0 1 .728.224 1.018 1.018 0 0 1 .364.56l6.552 17.976.056.252a.589.589 0 0 1-.196.42.57.57 0 0 1-.42.168h-3.444a.87.87 0 0 1-.896-.588l-1.092-2.856h-7.476l-1.064 2.856a.891.891 0 0 1-.924.588zm11.789-7.476-2.604-7.392-2.604 7.392zM100.058 33a.671.671 0 0 1-.7-.7V14.1a.683.683 0 0 1 .196-.504.745.745 0 0 1 .504-.196h2.968a.953.953 0 0 1 .952.532l6.832 10.752V14.1a.685.685 0 0 1 .196-.504.748.748 0 0 1 .504-.196h3.36a.671.671 0 0 1 .7.7v18.172a.78.78 0 0 1-.196.532.68.68 0 0 1-.504.196h-2.996a1.003 1.003 0 0 1-.924-.532l-6.832-10.36V32.3a.744.744 0 0 1-.196.504.68.68 0 0 1-.504.196zm27.517.28a9.326 9.326 0 0 1-6.3-1.96 7.497 7.497 0 0 1-2.408-5.628q-.027-.812-.028-2.576 0-1.764.028-2.576a7.173 7.173 0 0 1 2.436-5.488 9.508 9.508 0 0 1 6.272-1.932 11.33 11.33 0 0 1 4.62.868 7.496 7.496 0 0 1 3.024 2.212 4.73 4.73 0 0 1 1.12 2.772.53.53 0 0 1-.196.42.57.57 0 0 1-.42.168h-4.088a1.01 1.01 0 0 1-.448-.084.654.654 0 0 1-.28-.308 3.559 3.559 0 0 0-1.148-1.4 3.451 3.451 0 0 0-2.184-.616q-3.331 0-3.5 3.528-.027.784-.028 2.436 0 1.624.028 2.436.168 3.696 3.584 3.696a3.906 3.906 0 0 0 2.632-.84 3.285 3.285 0 0 0 1.008-2.632v-.532h-2.632a.683.683 0 0 1-.504-.196.785.785 0 0 1-.196-.532v-2.072a.685.685 0 0 1 .196-.504.64.64 0 0 1 .504-.224h7.056a.637.637 0 0 1 .504.224.681.681 0 0 1 .196.504v3.192a7.569 7.569 0 0 1-1.092 4.116 7.083 7.083 0 0 1-3.108 2.632 11.22 11.22 0 0 1-4.648.896zm10.503-.28a.574.574 0 0 1-.588-.588.872.872 0 0 1 .028-.252l6.58-17.976a1.021 1.021 0 0 1 .364-.56 1.132 1.132 0 0 1 .728-.224h4.144a1.128 1.128 0 0 1 .728.224 1.016 1.016 0 0 1 .364.56l6.552 17.976.056.252a.587.587 0 0 1-.196.42.57.57 0 0 1-.42.168h-3.444a.871.871 0 0 1-.896-.588l-1.092-2.856h-7.476l-1.064 2.856a.89.89 0 0 1-.924.588zm11.788-7.476-2.604-7.392-2.604 7.392zM159.941 33a.671.671 0 0 1-.7-.7V14.1a.685.685 0 0 1 .196-.504.748.748 0 0 1 .504-.196h2.968a.953.953 0 0 1 .952.532l6.832 10.752V14.1a.685.685 0 0 1 .196-.504.748.748 0 0 1 .504-.196h3.36a.671.671 0 0 1 .7.7v18.172a.78.78 0 0 1-.196.532.68.68 0 0 1-.504.196h-2.996a1.003 1.003 0 0 1-.924-.532l-6.832-10.36V32.3a.744.744 0 0 1-.196.504.68.68 0 0 1-.504.196zm20.125 0a.671.671 0 0 1-.7-.7V14.1a.685.685 0 0 1 .196-.504.748.748 0 0 1 .504-.196h3.696a.671.671 0 0 1 .7.7v14.672h8.484a.637.637 0 0 1 .504.224.681.681 0 0 1 .196.504v2.8a.744.744 0 0 1-.196.504.68.68 0 0 1-.504.196zm16.707 0a.671.671 0 0 1-.7-.7V14.1a.685.685 0 0 1 .196-.504.748.748 0 0 1 .504-.196h3.752a.68.68 0 0 1 .504.196.637.637 0 0 1 .224.504v18.2a.637.637 0 0 1-.224.504.68.68 0 0 1-.504.196zm9.078 0a.671.671 0 0 1-.7-.7V14.1a.685.685 0 0 1 .196-.504.748.748 0 0 1 .504-.196h3.528a.671.671 0 0 1 .7.7v6.216l5.18-6.384a1.193 1.193 0 0 1 1.092-.532h4.032a.53.53 0 0 1 .42.196.537.537 0 0 1 .168.392.641.641 0 0 1-.084.336l-6.72 8.456 7.224 9.296a.455.455 0 0 1 .112.336.635.635 0 0 1-.168.42.57.57 0 0 1-.42.168h-4.172a1.38 1.38 0 0 1-1.12-.56l-5.544-6.916V32.3a.671.671 0 0 1-.7.7zm18.567 0a.671.671 0 0 1-.7-.7V14.1a.681.681 0 0 1 .196-.504.744.744 0 0 1 .504-.196h3.696a.671.671 0 0 1 .7.7v14.672h8.484a.64.64 0 0 1 .504.224.685.685 0 0 1 .196.504v2.8a.749.749 0 0 1-.196.504.683.683 0 0 1-.504.196zm14.887 0a.574.574 0 0 1-.588-.588.838.838 0 0 1 .028-.252l6.58-17.976a1.016 1.016 0 0 1 .364-.56 1.13 1.13 0 0 1 .728-.224h4.144a1.13 1.13 0 0 1 .728.224 1.016 1.016 0 0 1 .364.56l6.552 17.976.056.252a.587.587 0 0 1-.196.42.57.57 0 0 1-.42.168h-3.444a.87.87 0 0 1-.896-.588l-1.092-2.856h-7.476l-1.064 2.856a.89.89 0 0 1-.924.588zm11.788-7.476-2.604-7.392-2.604 7.392zM261.168 33a.671.671 0 0 1-.7-.7V14.1a.681.681 0 0 1 .196-.504.744.744 0 0 1 .504-.196h7.616a8.756 8.756 0 0 1 5.712 1.68 5.668 5.668 0 0 1 2.072 4.704 5.826 5.826 0 0 1-.924 3.332 5.905 5.905 0 0 1-2.548 2.1l3.836 6.888a.697.697 0 0 1 .084.308.591.591 0 0 1-.196.42.538.538 0 0 1-.392.168h-3.724a1.169 1.169 0 0 1-1.148-.756l-3.192-6.16h-2.856V32.3a.64.64 0 0 1-.224.504.683.683 0 0 1-.504.196zm7.56-10.892a2.806 2.806 0 0 0 1.96-.616 2.328 2.328 0 0 0 .672-1.764 2.328 2.328 0 0 0-.672-1.764 2.6 2.6 0 0 0-1.96-.672h-3.22v4.816zM279.743 33a.783.783 0 0 1-.532-.196.685.685 0 0 1-.196-.504v-1.988a1.65 1.65 0 0 1 .7-1.372l2.912-2.856q2.548-1.96 3.864-3.052a12.35 12.35 0 0 0 1.988-1.988 2.886 2.886 0 0 0 .672-1.708 1.943 1.943 0 0 0-2.184-2.212 2.226 2.226 0 0 0-1.764.7 3.41 3.41 0 0 0-.812 1.708.86.86 0 0 1-.952.644h-3.5a.574.574 0 0 1-.588-.588 6.477 6.477 0 0 1 .98-3.276 6.601 6.601 0 0 1 2.66-2.38 8.549 8.549 0 0 1 3.976-.896 9.776 9.776 0 0 1 4.032.756 5.662 5.662 0 0 1 2.548 2.128 6.039 6.039 0 0 1-.364 6.776 18.784 18.784 0 0 1-3.696 3.472l-2.576 2.604h7.196a.68.68 0 0 1 .504.196.637.637 0 0 1 .224.504V32.3a.637.637 0 0 1-.224.504.68.68 0 0 1-.504.196zm27.09 0a.671.671 0 0 1-.7-.7v-3.164h-8.708a.671.671 0 0 1-.7-.7v-2.66a1.54 1.54 0 0 1 .308-.868l8.148-11.032a1.277 1.277 0 0 1 1.036-.476h4.088a.671.671 0 0 1 .7.7v10.864h2.464a.67.67 0 0 1 .532.224.647.647 0 0 1 .196.476v2.772a.671.671 0 0 1-.7.7h-2.492V32.3a.744.744 0 0 1-.196.504.68.68 0 0 1-.504.196zm-.588-7.84v-6.608l-4.704 6.608z" transform="translate(-6 -4)" style="fill:#295091"/></svg>